<?xml version="1.0" encoding="UTF-8"?>
<svg width="192" height="192" viewBox="0 0 192 192" fill="none" xmlns="http://www.w3.org/2000/svg">
<circle cx="96" cy="96" r="96" fill="#F1F4F7"/>
<circle cx="96" cy="96" r="80" fill="white" fill-opacity="0.3"/>
<circle cx="96" cy="96" r="64" fill="white" fill-opacity="0.7"/>
<path d="M95.7693 64C79.5221 64 80.5367 71.0826 80.5367 71.0826L80.5548 78.4202H96.0591V80.6233H74.3966C74.3966 80.6233 64 79.438 64 95.9174C64 112.397 73.0744 111.812 73.0744 111.812H78.49V104.165C78.49 104.165 78.1981 95.0434 87.4194 95.0434C96.6408 95.0434 102.797 95.0434 102.797 95.0434C102.797 95.0434 111.437 95.1838 111.437 86.6499C111.437 78.1159 111.437 72.5392 111.437 72.5392C111.437 72.5392 112.748 64 95.7693 64ZM87.2202 68.9342C88.7628 68.9342 90.0095 70.1875 90.0095 71.7381C90.0095 73.2887 88.7628 74.542 87.2202 74.542C85.6776 74.542 84.4309 73.2887 84.4309 71.7381C84.4309 70.1875 85.6776 68.9342 87.2202 68.9342Z" fill="url(#paint0_linear)"/>
<path d="M96.2307 128C112.478 128 111.463 120.917 111.463 120.917L111.445 113.58H95.9409V111.377H117.603C117.603 111.377 128 112.562 128 96.0826C128 79.6032 118.926 80.1876 118.926 80.1876H113.51V87.8347C113.51 87.8347 113.802 96.9565 104.581 96.9565C95.3592 96.9565 89.2031 96.9565 89.2031 96.9565C89.2031 96.9565 80.5634 96.8161 80.5634 105.35C80.5634 113.884 80.5634 119.461 80.5634 119.461C80.5634 119.461 79.2517 128 96.2307 128ZM104.78 123.066C103.237 123.066 101.99 121.813 101.99 120.262C101.99 118.711 103.237 117.458 104.78 117.458C106.322 117.458 107.569 118.711 107.569 120.262C107.569 121.813 106.322 123.066 104.78 123.066Z" fill="url(#paint1_linear)"/>
<defs>
<linearGradient id="paint0_linear" x1="70.1505" y1="69.5942" x2="101.962" y2="101.346" gradientUnits="userSpaceOnUse">
<stop stop-color="#7800FF"/>
</linearGradient>
<linearGradient id="paint1_linear" x1="89.6179" y1="89.8991" x2="123.776" y2="122.454" gradientUnits="userSpaceOnUse">
<stop stop-color="#FF4F12"/>
</linearGradient>
</defs>
</svg>
