<svg xmlns="http://www.w3.org/2000/svg" viewBox="0 0 56 56">
  <defs>
    <style>
      .a {
        fill: #dfe4e9;
      }

      .b {
        fill: #ccd3db;
      }
    </style>
  </defs>
  <title>geekbrains-notice-icn</title>
  <g>
    <circle class="a" cx="28" cy="28" r="28"/>
    <g>
      <circle class="b" cx="28" cy="28" r="12"/>
      <path class="b" d="M44,21a2,2,0,0,0-.49.07,17,17,0,0,0-31,0A2,2,0,0,0,12,21a4,4,0,0,0-4,4v6a4,4,0,0,0,4,4,2,2,0,0,0,2-2V23a2,2,0,0,0,0-.27,15,15,0,0,1,28.05,0A2,2,0,0,0,42,23V33a2,2,0,0,0,0,.27,15,15,0,0,1-11.31,9.47,3,3,0,1,0,.18,2,17,17,0,0,0,12.61-9.8A2,2,0,0,0,44,35a4,4,0,0,0,4-4V25A4,4,0,0,0,44,21Z"/>
    </g>
  </g>
</svg>
